<?xml version="1.0" encoding="utf-8"?>
<!-- Generator: Adobe Illustrator 24.0.2, SVG Export Plug-In . SVG Version: 6.00 Build 0)  -->
<svg version="1.1" id="Layer_1" xmlns="http://www.w3.org/2000/svg" xmlns:xlink="http://www.w3.org/1999/xlink" x="0px" y="0px"
	 width="249.2px" height="30.9px" viewBox="0 0 249.2 30.9" style="enable-background:new 0 0 249.2 30.9;" xml:space="preserve">
<style type="text/css">
	.st0{fill:#FFFFFF;}
	.st1{fill:#2BA4DC;}
</style>
<g>
	<path class="st0" d="M89,20.4c0,2.4,0,4.7,0,7.1c0,1-0.4,1.3-1.3,1.3c-1.5-0.1-3-0.1-4.5,0c-1,0-1.3-0.3-1.3-1.3
		c0.1-4.3,0-8.6,0-12.9c0-1.6-0.3-1.9-1.9-1.9c-1.9,0-3.7,0-5.6,0c-1.4,0-1.4,0-1.4,1.4c0,4.4,0,8.8,0,13.2c0,1.4,0,1.4-1.5,1.4
		c-1.5,0-3.1,0-4.6,0c-0.8,0-1.1-0.2-1.1-1c0-8.6,0-17.1,0-25.7c0-0.7,0.2-1,0.9-1c1.8,0,3.5,0,5.3,0c0.8,0,1,0.3,1,1
		c0,0.8,0,1.6,0,2.4c0,0.7,0.3,1,1,1c2.2,0,4.4,0,6.7,0c4.7,0,8.3,3.5,8.4,8.3C89.1,15.9,89,18.1,89,20.4C89,20.4,89,20.4,89,20.4z"
		/>
	<path class="st0" d="M34.9,28.7c-2.3,0-4.5,0-6.8,0c-4.4,0-7.9-3.5-8.1-7.9c-0.1-2.5-0.1-5,0-7.5c0.1-4.3,3.7-7.8,8-7.9
		c2.9,0,5.9-0.2,8.7,0.2c4.8,0.7,7.3,5,5.9,9.7c-0.4,1.4-0.9,2.8-1.3,4.1c-0.2,0.6-0.4,0.9-1.1,0.9c-1.8,0-3.6,0-5.4,0
		c-0.8,0-0.9-0.3-0.7-1c0.5-1.6,1-3.3,1.5-5c0.4-1.3,0-1.8-1.3-1.8c-1.9,0-3.8,0-5.7,0c-1.2,0-1.5,0.3-1.5,1.5c0,1.9,0,3.9,0,5.8
		c0,1.2,0.3,1.5,1.6,1.6c4.3,0,8.7,0,13,0c1,0,1.4,0.3,1.3,1.3c-0.1,1.6-0.1,3.2,0,4.9c0,0.8-0.3,1-1,1
		C39.7,28.7,37.3,28.7,34.9,28.7z"/>
	<path class="st0" d="M192.2,17.2c0,1.3,0.1,2.5,0,3.8c-0.2,4.3-3.8,7.7-8.1,7.8c-2.2,0-4.4,0-6.5,0c-4.5,0-8-2.9-8.4-7.4
		c-0.3-2.9-0.3-5.9,0-8.7c0.4-4.2,4-7.1,8.2-7.2c2.3,0,4.5,0,6.8,0c4.2,0,7.8,3.5,8,7.7C192.2,14.5,192.2,15.8,192.2,17.2
		C192.2,17.2,192.2,17.2,192.2,17.2z M180.6,21.5c1,0,2,0,3.1,0c0.9,0,1.3-0.4,1.3-1.3c0-2.1,0-4.2,0-6.3c0-0.8-0.5-1.2-1.3-1.3
		c-2.1,0-4.1,0-6.2,0c-0.8,0-1.3,0.5-1.4,1.3c0,2.1,0,4.1,0,6.2c0,0.9,0.6,1.4,1.5,1.4C178.7,21.5,179.6,21.5,180.6,21.5z"/>
	<path class="st0" d="M127,28.8c-1.7-0.1-3.4,0-5-0.3c-3.8-0.7-6.6-4.1-6.6-8c0-2.8-0.1-5.7,0.2-8.5c0.5-3.7,4-6.5,7.7-6.6
		c2.2,0,4.4,0,6.5,0c4.6,0,8.1,2.8,8.5,7.4c0.3,3,0.3,6.1-0.1,9.1c-0.4,4-4,6.8-8,6.9C129.3,28.7,128.2,28.7,127,28.8
		C127.1,28.8,127,28.8,127,28.8z M122.6,17c0,1.1,0,2.1,0,3.2c0,0.9,0.5,1.4,1.4,1.4c2,0,4.1,0,6.1,0c0.9,0,1.4-0.5,1.4-1.4
		c0-2,0-4.1,0-6.1c0-0.9-0.5-1.4-1.4-1.4c-2,0-4.1,0-6.1,0c-0.9,0-1.4,0.5-1.4,1.4C122.6,15,122.6,16,122.6,17z"/>
	<path class="st0" d="M193.8,20.4c0-2.2,0-4.4,0-6.7c0-4.6,3.6-8.2,8.3-8.2c2.2,0,4.4,0,6.5,0c4.5,0,8.2,3.6,8.2,8.2
		c0,4.6,0,9.2,0,13.9c0,1-0.3,1.3-1.3,1.3c-1.6-0.1-3.2-0.1-4.9,0c-0.8,0-1.1-0.3-1.1-1.1c0-4.4,0-8.7,0-13.1c0-1.6-0.3-1.9-1.8-1.9
		c-1.8,0-3.5,0-5.3,0c-1.2,0-1.6,0.4-1.6,1.6c0,4.3,0,8.6,0,12.9c0,1.6,0,1.6-1.6,1.6c-1.5,0-3,0-4.4,0c-0.8,0-1.1-0.2-1.1-1.1
		C193.9,25.2,193.8,22.8,193.8,20.4z"/>
	<path class="st0" d="M90.7,20.3c0-2.2,0-4.4,0-6.7c0.1-4.6,3.6-8.2,8.2-8.2c2.2,0,4.4,0,6.7,0c4.4,0,8.1,3.6,8.2,7.9
		c0.1,4.8,0,9.6,0,14.4c0,0.7-0.3,1-1,1c-1.7,0-3.4,0-5.1,0c-0.9,0-1.1-0.3-1.1-1.2c0-4.3,0-8.7,0-13c0-1.6-0.3-1.9-1.9-1.9
		c-1.7,0-3.5,0-5.2,0c-1.3,0-1.6,0.3-1.6,1.6c0,4.4,0,8.7,0,13.1c0,1.1-0.3,1.4-1.4,1.4c-1.5-0.1-3.1-0.1-4.6,0
		c-0.9,0-1.2-0.3-1.2-1.1C90.7,25.2,90.7,22.7,90.7,20.3z"/>
	<path class="st0" d="M57.6,28.8c-2.2-0.1-4.5,0-6.6-0.3c-3.6-0.6-6.3-4-6.4-7.7c0-2.5-0.1-5,0-7.5c0.1-4.2,3.7-7.8,7.9-7.8
		c3.5-0.1,7,0,10.5,0c0.8,0,1.2,0.2,1.1,1.1c0,1.7,0,3.4,0,5.1c0,0.9-0.3,1.1-1.1,1.1c-3.1,0-6.3,0-9.4,0c-1.5,0-1.8,0.3-1.8,1.8
		c0,1.8,0,3.6,0,5.4c0,1.4,0.3,1.7,1.8,1.7c3.1,0,6.2,0,9.3,0c0.9,0,1.3,0.2,1.3,1.2c-0.1,1.6,0,3.2,0,4.9c0,0.8-0.2,1.1-1.1,1.1
		C61.2,28.7,59.4,28.7,57.6,28.8C57.6,28.8,57.6,28.8,57.6,28.8z"/>
	<path class="st0" d="M240.4,28.5c-2.2,0-4.4,0.3-6.5-0.1c-3.7-0.6-6.4-4-6.5-7.8c0-2.5,0-4.9,0-7.4c0.1-4.2,3.7-7.8,7.9-7.8
		c3.5,0,7,0,10.5,0c0.9,0,1.2,0.3,1.1,1.2c0,1.5-0.1,3.1,0,4.6c0,1-0.3,1.4-1.4,1.4c-3.1-0.1-6.1,0-9.2,0c-1.5,0-1.8,0.3-1.8,1.8
		c0,1.8,0,3.5,0,5.3c0,1.5,0.3,1.8,1.9,1.8c3.1,0,6.1,0,9.2,0c1,0,1.3,0.3,1.3,1.3c-0.1,1.7,0,3.3,0,5c0,0.7-0.3,1-1,1
		c-1.8,0-3.7,0-5.5,0C240.4,28.7,240.4,28.6,240.4,28.5z"/>
	<path class="st0" d="M14.4,18.5c0,3,0,5.9,0,8.9c0,1.4,0,1.4-1.4,1.4c-1.5,0-3-0.1-4.4,0c-1,0-1.3-0.3-1.3-1.3c0-6,0-12,0-18
		C7.2,8,7.2,8,5.8,8C4.6,8,3.4,8,2.2,8C1.6,8,1.3,7.8,1.3,7.1c0-1.8,0-3.5,0-5.3C1.3,1.3,1.5,1,2.1,1c5.8,0,11.5,0,17.3,0
		c0.7,0,0.9,0.3,0.9,0.9c0,1.7,0,3.5,0,5.2C20.3,7.8,20,8,19.4,8c-1.3,0-2.5,0-3.8,0c-0.9,0-1.2,0.3-1.2,1.2
		C14.4,12.3,14.4,15.4,14.4,18.5z"/>
	<path class="st0" d="M140.2,11.4c0-3.1,0-6.1,0-9.2c0-0.8,0.2-1.2,1.1-1.2c1.7,0.1,3.3,0,5,0c0.8,0,1.2,0.2,1.1,1.1
		c0,0.8,0,1.6,0,2.4c0,0.7,0.3,0.9,1,0.9c1.2,0,2.4,0,3.6,0c0.8,0,1.1,0.3,1.1,1.1c0,1.6,0,3.2,0,4.9c0,0.8-0.3,1.1-1.1,1
		c-1.2,0-2.5,0-3.7,0c-0.6,0-0.9,0.3-0.9,0.9c0,2.3,0,4.6,0,6.9c0,0.9,0.4,1.4,1.4,1.4c1.1-0.1,2.1,0,3.2,0c0.7,0,1,0.2,1,1
		c0,1.8,0,3.6,0,5.4c0,0.3-0.4,0.8-0.7,0.8c-1.8,0-3.5,0.2-5.3-0.1c-4-0.7-6.8-4.1-6.8-8.2C140.2,17.4,140.2,14.4,140.2,11.4z"/>
	<path class="st0" d="M155,20.4c0-2.3,0-4.5,0-6.8c0-4.6,3.7-8.2,8.2-8.2c1.2,0,2.5,0,3.7,0c0.6,0,1,0.2,1,0.9c0,1.8,0,3.6,0,5.4
		c0,0.7-0.3,0.9-0.9,0.9c-1.1,0-2.1,0-3.2,0c-1.2,0-1.6,0.4-1.6,1.6c0,4.4,0,8.7,0,13.1c0,1.1-0.3,1.4-1.4,1.4c-1.6-0.1-3.2,0-4.9,0
		c-0.7,0-1-0.3-1-1C155,25.3,155,22.9,155,20.4z"/>
	<path class="st0" d="M218.6,17.5c0-3.3,0-6.6,0-9.9c0-0.9,0.2-1.3,1.2-1.2c1.7,0.1,3.3,0,5,0c0.8,0,1.1,0.3,1.1,1
		c0,6.8,0,13.5,0,20.3c0,0.8-0.3,1.1-1,1.1c-1.7,0-3.4,0-5.1,0c-0.8,0-1.1-0.3-1.1-1.1C218.6,24.3,218.6,20.9,218.6,17.5z"/>
	<path class="st0" d="M222.2,1c0.9,0,1.8,0,2.6,0c0.7,0,1,0.2,0.9,0.9c0,0.8,0,1.7,0,2.5c0,0.6-0.2,0.9-0.8,0.9c-1.9,0-3.7,0-5.6,0
		c-0.3,0-0.7-0.5-0.7-0.7c-0.1-0.9-0.1-1.9,0-2.8c0-0.3,0.4-0.7,0.7-0.7C220.3,1,221.2,1,222.2,1C222.2,1,222.2,1,222.2,1z"/>
</g>
</svg>
